<svg width="154" height="22" viewBox="0 0 154 22" fill="none" xmlns="http://www.w3.org/2000/svg">
<path d="M5.68 18.832C6.576 18.832 7.448 18.696 8.296 18.424C9.144 18.152 9.92 17.824 10.624 17.44C11.328 17.04 11.952 16.616 12.496 16.168C13.04 15.72 13.464 15.328 13.768 14.992C13.928 14.832 14.056 14.816 14.152 14.944C14.264 15.056 14.256 15.184 14.128 15.328C13.952 15.536 13.608 15.872 13.096 16.336C12.584 16.784 11.944 17.24 11.176 17.704C10.424 18.152 9.568 18.552 8.608 18.904C7.664 19.256 6.672 19.432 5.632 19.432C5.2 19.432 4.704 19.384 4.144 19.288C3.6 19.192 3.088 19.024 2.608 18.784C2.128 18.528 1.72 18.184 1.384 17.752C1.048 17.32 0.88 16.76 0.88 16.072C0.88 15.4 1.032 14.784 1.336 14.224C1.64 13.648 2.016 13.16 2.464 12.76C2.928 12.344 3.424 12.024 3.952 11.8C4.48 11.576 4.968 11.464 5.416 11.464C5.56 11.464 5.704 11.472 5.848 11.488C5.992 11.504 6.128 11.536 6.256 11.584C6.384 11.616 6.488 11.68 6.568 11.776C6.648 11.856 6.688 11.968 6.688 12.112C6.688 12.256 6.664 12.408 6.616 12.568C6.584 12.728 6.536 12.88 6.472 13.024C6.408 13.168 6.336 13.288 6.256 13.384C6.192 13.464 6.128 13.504 6.064 13.504C5.984 13.504 5.936 13.48 5.92 13.432C5.904 13.368 5.896 13.32 5.896 13.288C5.896 13.224 5.928 13.128 5.992 13C6.056 12.872 6.112 12.744 6.16 12.616C6.208 12.488 6.224 12.376 6.208 12.28C6.208 12.168 6.136 12.112 5.992 12.112C5.752 12.112 5.448 12.232 5.08 12.472C4.728 12.696 4.376 13.008 4.024 13.408C3.688 13.792 3.4 14.256 3.16 14.8C2.92 15.344 2.8 15.928 2.8 16.552C2.8 17.032 2.904 17.424 3.112 17.728C3.32 18.016 3.568 18.248 3.856 18.424C4.16 18.584 4.48 18.696 4.816 18.76C5.152 18.808 5.448 18.832 5.704 18.832H5.68ZM34.7254 14.992C34.8694 14.832 34.9894 14.816 35.0854 14.944C35.1974 15.056 35.1894 15.184 35.0614 15.328C34.9494 15.472 34.7574 15.696 34.4854 16C34.2134 16.304 33.8694 16.648 33.4534 17.032C33.0534 17.4 32.5894 17.792 32.0614 18.208C31.5494 18.608 30.9894 18.968 30.3814 19.288C29.7734 19.624 29.1334 19.896 28.4614 20.104C27.8054 20.328 27.1254 20.44 26.4214 20.44C25.1254 20.44 24.0854 20.216 23.3014 19.768C22.5174 19.32 21.9094 18.76 21.4774 18.088C21.0454 17.4 20.7574 16.664 20.6134 15.88C20.4694 15.096 20.3814 14.368 20.3494 13.696C20.3174 13.008 20.3014 12.44 20.3014 11.992C20.3014 11.544 20.2454 11.32 20.1334 11.32C20.0214 11.32 19.8374 11.512 19.5814 11.896C19.3414 12.264 19.0614 12.744 18.7414 13.336C18.4374 13.912 18.1094 14.552 17.7574 15.256C17.4214 15.944 17.1014 16.616 16.7974 17.272C16.5094 17.928 16.2614 18.52 16.0534 19.048C15.8454 19.576 15.7094 19.952 15.6454 20.176V20.584C15.6454 20.728 15.5334 20.856 15.3094 20.968C15.0854 21.08 14.8374 21.152 14.5654 21.184C14.3094 21.232 14.0694 21.232 13.8454 21.184C13.6374 21.136 13.5334 21.016 13.5334 20.824C13.5334 17.064 13.7334 13.872 14.1334 11.248C14.5494 8.608 15.0374 6.472 15.5974 4.84C16.1734 3.192 16.7574 2 17.3494 1.264C17.9414 0.512 18.4214 0.136 18.7894 0.136C18.9814 0.136 19.1414 0.199999 19.2694 0.327999C19.3974 0.439999 19.5014 0.591999 19.5814 0.783998C19.6774 0.975999 19.7414 1.184 19.7734 1.408C19.8054 1.632 19.8214 1.848 19.8214 2.056C19.8214 2.872 19.7014 3.808 19.4614 4.864C19.2214 5.904 18.9094 6.96 18.5254 8.032C18.1574 9.088 17.7414 10.12 17.2774 11.128C16.8294 12.12 16.3894 12.976 15.9574 13.696C15.8134 15.184 15.7174 16.816 15.6694 18.592C15.8294 18.224 16.0214 17.768 16.2454 17.224C16.4854 16.664 16.7414 16.088 17.0134 15.496C17.3014 14.888 17.5894 14.288 17.8774 13.696C18.1814 13.088 18.4774 12.552 18.7654 12.088C19.0694 11.608 19.3494 11.224 19.6054 10.936C19.8774 10.632 20.1174 10.48 20.3254 10.48H20.6854C20.9894 10.48 21.2854 10.568 21.5734 10.744C21.8774 10.92 22.0294 11.144 22.0294 11.416C22.0294 11.544 22.0294 11.84 22.0294 12.304C22.0294 12.768 22.0534 13.312 22.1014 13.936C22.1654 14.56 22.2774 15.216 22.4374 15.904C22.6134 16.592 22.8614 17.232 23.1814 17.824C23.5174 18.4 23.9494 18.88 24.4774 19.264C25.0214 19.648 25.6934 19.84 26.4934 19.84C27.3894 19.84 28.2614 19.648 29.1094 19.264C29.9734 18.896 30.7654 18.456 31.4854 17.944C32.2214 17.416 32.8694 16.88 33.4294 16.336C33.9894 15.776 34.4214 15.328 34.7254 14.992ZM18.9814 1.984C18.8694 1.984 18.6934 2.2 18.4534 2.632C18.2134 3.064 17.9494 3.712 17.6614 4.576C17.3894 5.44 17.1094 6.52 16.8214 7.816C16.5334 9.112 16.2934 10.632 16.1014 12.376C16.5014 11.624 16.8854 10.808 17.2534 9.928C17.6214 9.032 17.9414 8.136 18.2134 7.24C18.4854 6.344 18.7014 5.472 18.8614 4.624C19.0374 3.776 19.1254 3.016 19.1254 2.344C19.1254 2.168 19.1094 2.064 19.0774 2.032C19.0454 2 19.0134 1.984 18.9814 1.984ZM50.1346 14.992C50.2786 14.832 50.3986 14.816 50.4946 14.944C50.6066 15.056 50.6066 15.184 50.4946 15.328C50.3826 15.472 50.1746 15.704 49.8706 16.024C49.5826 16.344 49.2146 16.704 48.7666 17.104C48.3346 17.504 47.8386 17.92 47.2786 18.352C46.7346 18.784 46.1426 19.176 45.5026 19.528C44.8786 19.88 44.2226 20.168 43.5346 20.392C42.8626 20.632 42.1746 20.752 41.4706 20.752C40.6706 20.752 39.9826 20.632 39.4066 20.392C38.8466 20.168 38.3746 19.864 37.9906 19.48C37.6226 19.112 37.3266 18.688 37.1026 18.208C36.8946 17.712 36.7346 17.208 36.6226 16.696C36.5106 16.168 36.4386 15.648 36.4066 15.136C36.3906 14.608 36.3906 14.128 36.4066 13.696C36.2146 13.984 36.0146 14.248 35.8066 14.488C35.6146 14.728 35.3826 15.008 35.1106 15.328C35.0306 15.408 34.9506 15.456 34.8706 15.472C34.8066 15.472 34.7506 15.456 34.7026 15.424C34.6546 15.376 34.6306 15.312 34.6306 15.232C34.6146 15.152 34.6466 15.072 34.7266 14.992C35.1746 14.48 35.5746 13.984 35.9266 13.504C36.2946 13.008 36.4786 12.56 36.4786 12.16C36.4786 12 36.5746 11.904 36.7666 11.872C36.9586 11.84 37.1666 11.856 37.3906 11.92C37.6146 11.984 37.8226 12.08 38.0146 12.208C38.2066 12.336 38.3026 12.472 38.3026 12.616C38.3026 12.664 38.2866 12.888 38.2546 13.288C38.2226 13.672 38.2066 14.144 38.2066 14.704C38.2226 15.264 38.2706 15.864 38.3506 16.504C38.4306 17.144 38.5906 17.736 38.8306 18.28C39.0706 18.808 39.4066 19.248 39.8386 19.6C40.2706 19.968 40.8386 20.152 41.5426 20.152C42.4386 20.152 43.3346 19.944 44.2306 19.528C45.1266 19.128 45.9586 18.648 46.7266 18.088C47.5106 17.528 48.1986 16.96 48.7906 16.384C49.3826 15.792 49.8306 15.328 50.1346 14.992ZM37.8226 10.096C37.5346 10.16 37.2786 10.096 37.0546 9.904C36.8306 9.712 36.7026 9.44 36.6706 9.088C36.6386 8.752 36.7106 8.44 36.8866 8.152C37.0786 7.864 37.3266 7.688 37.6306 7.624C37.9186 7.56 38.1746 7.624 38.3986 7.816C38.6226 8.008 38.7506 8.272 38.7826 8.608C38.8146 8.96 38.7346 9.28 38.5426 9.568C38.3506 9.84 38.1106 10.016 37.8226 10.096ZM67.549 14.992C67.709 14.832 67.837 14.816 67.933 14.944C68.045 15.056 68.037 15.184 67.909 15.328C67.797 15.472 67.597 15.712 67.309 16.048C67.021 16.368 66.661 16.744 66.229 17.176C65.813 17.592 65.333 18.024 64.789 18.472C64.245 18.92 63.661 19.328 63.037 19.696C62.429 20.064 61.781 20.368 61.093 20.608C60.421 20.848 59.733 20.968 59.029 20.968C57.941 20.968 56.837 20.792 55.717 20.44C54.613 20.104 53.613 19.584 52.717 18.88C51.821 18.176 51.085 17.304 50.509 16.264C49.949 15.208 49.669 13.968 49.669 12.544C49.669 10.848 49.813 9.248 50.101 7.744C50.389 6.24 50.749 4.928 51.181 3.808C51.613 2.672 52.069 1.776 52.549 1.12C53.045 0.463999 53.501 0.136 53.917 0.136C54.109 0.136 54.269 0.199999 54.397 0.327999C54.525 0.439999 54.629 0.591999 54.709 0.783998C54.789 0.975999 54.845 1.184 54.877 1.408C54.909 1.632 54.925 1.848 54.925 2.056C54.925 2.776 54.829 3.592 54.637 4.504C54.445 5.4 54.197 6.32 53.893 7.264C53.589 8.208 53.245 9.144 52.861 10.072C52.477 10.984 52.085 11.816 51.685 12.568C51.765 14.184 52.085 15.504 52.645 16.528C53.221 17.536 53.885 18.328 54.637 18.904C55.405 19.464 56.189 19.848 56.989 20.056C57.789 20.264 58.469 20.368 59.029 20.368C59.925 20.368 60.813 20.152 61.693 19.72C62.589 19.288 63.421 18.784 64.189 18.208C64.957 17.616 65.629 17.016 66.205 16.408C66.797 15.8 67.245 15.328 67.549 14.992ZM54.085 1.984C53.989 1.984 53.869 2.12 53.725 2.392C53.581 2.664 53.421 3.032 53.245 3.496C53.069 3.944 52.893 4.48 52.717 5.104C52.541 5.728 52.373 6.392 52.213 7.096C52.069 7.784 51.949 8.504 51.853 9.256C51.757 10.008 51.701 10.744 51.685 11.464C52.037 10.728 52.365 9.952 52.669 9.136C52.989 8.32 53.261 7.512 53.485 6.712C53.725 5.912 53.909 5.136 54.037 4.384C54.181 3.632 54.253 2.952 54.253 2.344C54.253 2.168 54.229 2.064 54.181 2.032C54.149 2 54.117 1.984 54.085 1.984ZM84.9631 14.992C85.1231 14.832 85.2511 14.816 85.3471 14.944C85.4591 15.056 85.4511 15.184 85.3231 15.328C85.2111 15.472 85.0111 15.712 84.7231 16.048C84.4351 16.368 84.0751 16.744 83.6431 17.176C83.2271 17.592 82.7471 18.024 82.2031 18.472C81.6591 18.92 81.0751 19.328 80.4511 19.696C79.8431 20.064 79.1951 20.368 78.5071 20.608C77.8351 20.848 77.1471 20.968 76.4431 20.968C75.3551 20.968 74.2511 20.792 73.1311 20.44C72.0271 20.104 71.0271 19.584 70.1311 18.88C69.2351 18.176 68.4991 17.304 67.9231 16.264C67.3631 15.208 67.0831 13.968 67.0831 12.544C67.0831 10.848 67.2271 9.248 67.5151 7.744C67.8031 6.24 68.1631 4.928 68.5951 3.808C69.0271 2.672 69.4831 1.776 69.9631 1.12C70.4591 0.463999 70.9151 0.136 71.3311 0.136C71.5231 0.136 71.6831 0.199999 71.8111 0.327999C71.9391 0.439999 72.0431 0.591999 72.1231 0.783998C72.2031 0.975999 72.2591 1.184 72.2911 1.408C72.3231 1.632 72.3391 1.848 72.3391 2.056C72.3391 2.776 72.2431 3.592 72.0511 4.504C71.8591 5.4 71.6111 6.32 71.3071 7.264C71.0031 8.208 70.6591 9.144 70.2751 10.072C69.8911 10.984 69.4991 11.816 69.0991 12.568C69.1791 14.184 69.4991 15.504 70.0591 16.528C70.6351 17.536 71.2991 18.328 72.0511 18.904C72.8191 19.464 73.6031 19.848 74.4031 20.056C75.2031 20.264 75.8831 20.368 76.4431 20.368C77.3391 20.368 78.2271 20.152 79.1071 19.72C80.0031 19.288 80.8351 18.784 81.6031 18.208C82.3711 17.616 83.0431 17.016 83.6191 16.408C84.2111 15.8 84.6591 15.328 84.9631 14.992ZM71.4991 1.984C71.4031 1.984 71.2831 2.12 71.1391 2.392C70.9951 2.664 70.8351 3.032 70.6591 3.496C70.4831 3.944 70.3071 4.48 70.1311 5.104C69.9551 5.728 69.7871 6.392 69.6271 7.096C69.4831 7.784 69.3631 8.504 69.2671 9.256C69.1711 10.008 69.1151 10.744 69.0991 11.464C69.4511 10.728 69.7791 9.952 70.0831 9.136C70.4031 8.32 70.6751 7.512 70.8991 6.712C71.1391 5.912 71.3231 5.136 71.4511 4.384C71.5951 3.632 71.6671 2.952 71.6671 2.344C71.6671 2.168 71.6431 2.064 71.5951 2.032C71.5631 2 71.5311 1.984 71.4991 1.984ZM115.52 14.992C115.584 14.912 115.648 14.872 115.712 14.872C115.776 14.872 115.824 14.896 115.856 14.944C115.904 14.992 115.92 15.056 115.904 15.136C115.904 15.2 115.88 15.264 115.832 15.328C115.688 15.504 115.4 15.824 114.968 16.288C114.552 16.752 114.008 17.24 113.336 17.752C112.664 18.248 111.864 18.688 110.936 19.072C110.024 19.456 109 19.648 107.864 19.648C107 19.648 106.256 19.536 105.632 19.312C105.024 19.088 104.512 18.8 104.096 18.448C103.776 18.848 103.416 19.168 103.016 19.408C102.616 19.664 102.168 19.792 101.672 19.792C101.144 19.792 100.704 19.68 100.352 19.456C100.016 19.248 99.7358 18.976 99.5118 18.64C99.3038 18.304 99.1597 17.928 99.0797 17.512C98.9837 17.096 98.9357 16.688 98.9357 16.288C98.9357 15.584 99.0717 14.912 99.3438 14.272C99.5998 13.616 99.9358 13.048 100.352 12.568C100.768 12.072 101.232 11.68 101.744 11.392C102.272 11.104 102.8 10.96 103.328 10.96C103.68 10.96 103.976 11.024 104.216 11.152C104.456 11.264 104.648 11.416 104.792 11.608C104.936 11.784 105.04 11.992 105.104 12.232C105.168 12.456 105.2 12.688 105.2 12.928C105.376 13.12 105.48 13.344 105.512 13.6C105.56 13.84 105.584 14 105.584 14.08C105.584 14.544 105.512 15.088 105.368 15.712C105.224 16.336 105 16.936 104.696 17.512C104.984 17.976 105.392 18.36 105.92 18.664C106.464 18.952 107.176 19.096 108.056 19.096C109.016 19.096 109.896 18.936 110.696 18.616C111.496 18.296 112.208 17.912 112.832 17.464C113.456 17.016 113.992 16.568 114.44 16.12C114.904 15.656 115.264 15.28 115.52 14.992ZM103.688 18.04C103.224 17.528 102.912 16.96 102.752 16.336C102.592 15.696 102.552 15.104 102.632 14.56C102.728 14 102.928 13.536 103.232 13.168C103.536 12.784 103.904 12.592 104.336 12.592C104.384 12.592 104.424 12.6 104.456 12.616C104.504 12.616 104.552 12.616 104.6 12.616C104.552 12.328 104.424 12.088 104.216 11.896C104.008 11.688 103.744 11.584 103.424 11.584C102.992 11.584 102.6 11.76 102.248 12.112C101.912 12.464 101.624 12.904 101.384 13.432C101.144 13.96 100.96 14.544 100.832 15.184C100.704 15.808 100.64 16.4 100.64 16.96C100.64 17.6 100.728 18.136 100.904 18.568C101.08 19 101.352 19.216 101.72 19.216C102.056 19.216 102.392 19.112 102.728 18.904C103.064 18.696 103.384 18.408 103.688 18.04ZM104.504 13.048C104.424 13.048 104.336 13.168 104.24 13.408C104.16 13.648 104.096 13.96 104.048 14.344C104 14.728 103.992 15.152 104.024 15.616C104.072 16.064 104.192 16.504 104.384 16.936C104.592 16.52 104.752 16.08 104.864 15.616C104.992 15.152 105.056 14.68 105.056 14.2C105.056 13.88 105.008 13.608 104.912 13.384C104.816 13.16 104.68 13.048 104.504 13.048ZM132.22 14.992C132.38 14.832 132.508 14.816 132.604 14.944C132.716 15.072 132.708 15.208 132.58 15.352C132.468 15.496 132.268 15.728 131.98 16.048C131.708 16.352 131.372 16.704 130.972 17.104C130.588 17.504 130.156 17.92 129.676 18.352C129.196 18.784 128.684 19.176 128.14 19.528C127.612 19.88 127.068 20.168 126.508 20.392C125.948 20.632 125.404 20.752 124.876 20.752C124.108 20.752 123.508 20.52 123.076 20.056C122.644 19.608 122.316 19.04 122.092 18.352C121.884 17.664 121.756 16.928 121.708 16.144C121.676 15.36 121.668 14.64 121.684 13.984C121.492 14.416 121.252 14.888 120.964 15.4C120.692 15.896 120.388 16.36 120.052 16.792C119.716 17.208 119.364 17.56 118.996 17.848C118.628 18.136 118.252 18.28 117.868 18.28C117.276 18.28 116.812 18.136 116.476 17.848C116.14 17.56 115.892 17.184 115.732 16.72C115.588 16.256 115.508 15.744 115.492 15.184C115.476 14.624 115.484 14.08 115.516 13.552C115.564 13.008 115.62 12.512 115.684 12.064C115.748 11.6 115.78 11.248 115.78 11.008C115.78 10.848 115.876 10.76 116.068 10.744C116.26 10.712 116.468 10.728 116.692 10.792C116.916 10.856 117.124 10.952 117.316 11.08C117.508 11.208 117.604 11.344 117.604 11.488C117.604 11.536 117.572 11.728 117.508 12.064C117.444 12.384 117.372 12.776 117.292 13.24C117.228 13.688 117.172 14.176 117.124 14.704C117.076 15.216 117.06 15.696 117.076 16.144C117.108 16.592 117.18 16.96 117.292 17.248C117.42 17.536 117.628 17.68 117.916 17.68C118.236 17.68 118.58 17.512 118.948 17.176C119.316 16.824 119.668 16.4 120.004 15.904C120.356 15.392 120.684 14.84 120.988 14.248C121.308 13.656 121.564 13.12 121.756 12.64V12.16C121.756 12 121.852 11.904 122.044 11.872C122.236 11.84 122.444 11.856 122.668 11.92C122.892 11.984 123.1 12.08 123.292 12.208C123.484 12.336 123.58 12.472 123.58 12.616C123.58 12.68 123.556 12.912 123.508 13.312C123.46 13.696 123.412 14.168 123.364 14.728C123.332 15.288 123.316 15.888 123.316 16.528C123.316 17.152 123.364 17.736 123.46 18.28C123.572 18.808 123.74 19.248 123.964 19.6C124.204 19.968 124.532 20.152 124.948 20.152C125.668 20.152 126.396 19.944 127.132 19.528C127.868 19.128 128.564 18.648 129.22 18.088C129.876 17.528 130.46 16.96 130.972 16.384C131.5 15.792 131.916 15.328 132.22 14.992ZM150.251 2.488C151.227 2.488 152.035 2.664 152.675 3.016C153.331 3.352 153.659 3.816 153.659 4.408C153.659 4.696 153.611 4.912 153.515 5.056C153.419 5.2 153.307 5.288 153.179 5.32C153.067 5.336 152.963 5.296 152.867 5.2C152.771 5.104 152.723 4.968 152.723 4.792C152.723 4.616 152.667 4.456 152.555 4.312C152.443 4.152 152.251 4.016 151.979 3.904C151.723 3.776 151.363 3.68 150.899 3.616C150.451 3.536 149.891 3.496 149.219 3.496C148.371 3.496 147.443 3.56 146.435 3.688C145.427 3.816 144.379 3.984 143.291 4.192C142.203 4.4 141.083 4.632 139.931 4.888C138.795 5.144 137.667 5.4 136.547 5.656C136.227 6.856 135.827 8.072 135.347 9.304C134.867 10.52 134.371 11.624 133.859 12.616C133.907 13.688 134.059 14.632 134.315 15.448C134.587 16.248 134.923 16.936 135.323 17.512C135.723 18.088 136.171 18.56 136.667 18.928C137.179 19.296 137.699 19.584 138.227 19.792C138.755 20.016 139.275 20.168 139.787 20.248C140.299 20.344 140.771 20.392 141.203 20.392C142.163 20.392 143.091 20.176 143.987 19.744C144.883 19.312 145.707 18.8 146.459 18.208C147.211 17.616 147.867 17.016 148.427 16.408C148.987 15.8 149.419 15.328 149.723 14.992C149.883 14.832 150.011 14.816 150.107 14.944C150.219 15.056 150.211 15.184 150.083 15.328C149.971 15.472 149.771 15.712 149.483 16.048C149.211 16.384 148.867 16.76 148.451 17.176C148.051 17.592 147.579 18.024 147.035 18.472C146.507 18.92 145.931 19.328 145.307 19.696C144.699 20.08 144.043 20.392 143.339 20.632C142.651 20.872 141.939 20.992 141.203 20.992C140.003 20.992 138.835 20.816 137.699 20.464C136.579 20.128 135.579 19.608 134.699 18.904C133.835 18.2 133.139 17.328 132.611 16.288C132.099 15.232 131.843 13.992 131.843 12.568C131.843 11.464 131.907 10.408 132.035 9.4C132.147 8.392 132.315 7.432 132.539 6.52C131.483 6.744 130.491 6.92 129.563 7.048C128.619 7.176 127.779 7.24 127.043 7.24C126.307 7.24 125.667 7.168 125.123 7.024C124.579 6.88 124.131 6.688 123.779 6.448C123.411 6.208 123.139 5.944 122.963 5.656C122.771 5.352 122.675 5.04 122.675 4.72C122.675 4.512 122.731 4.368 122.843 4.288C122.955 4.208 123.075 4.176 123.203 4.192C123.331 4.208 123.451 4.264 123.563 4.36C123.675 4.44 123.731 4.552 123.731 4.696C123.715 5.064 123.827 5.392 124.067 5.68C124.259 5.92 124.587 6.144 125.051 6.352C125.515 6.544 126.203 6.64 127.115 6.64C127.723 6.64 128.515 6.56 129.491 6.4C130.451 6.24 131.531 6.04 132.731 5.8C132.955 4.952 133.203 4.184 133.475 3.496C133.763 2.792 134.051 2.192 134.339 1.696C134.643 1.2 134.939 0.815999 135.227 0.543999C135.531 0.271999 135.811 0.136 136.067 0.136C136.259 0.136 136.419 0.199999 136.547 0.327999C136.675 0.455999 136.779 0.615999 136.859 0.808C136.955 0.999999 137.019 1.208 137.051 1.432C137.083 1.656 137.099 1.872 137.099 2.08C137.099 2.496 137.067 2.952 137.003 3.448C136.939 3.928 136.843 4.424 136.715 4.936C138.011 4.648 139.315 4.36 140.627 4.072C141.939 3.784 143.195 3.52 144.395 3.28C145.595 3.04 146.699 2.848 147.707 2.704C148.715 2.56 149.563 2.488 150.251 2.488ZM136.259 2.008C136.115 2.008 135.907 2.32 135.635 2.944C135.363 3.568 135.091 4.368 134.819 5.344C135.027 5.312 135.235 5.272 135.443 5.224C135.651 5.176 135.859 5.128 136.067 5.08C136.291 4.04 136.403 3.136 136.403 2.368C136.403 2.192 136.387 2.088 136.355 2.056C136.323 2.024 136.291 2.008 136.259 2.008ZM133.835 11.488C134.267 10.608 134.659 9.68 135.011 8.704C135.379 7.712 135.683 6.736 135.923 5.776C135.491 5.904 135.059 6 134.627 6.064C134.419 6.912 134.243 7.8 134.099 8.728C133.955 9.656 133.867 10.576 133.835 11.488Z" fill="#B7B7B7"/>
</svg>
