<svg width="77" height="77" viewBox="0 0 77 77" fill="none" xmlns="http://www.w3.org/2000/svg">
<circle cx="35.8109" cy="20.3705" r="17.3705" stroke="#626BE7" strokeWidth="5.14681"/>
<path d="M3.00001 70.5519C3.00001 52.4309 17.69 37.741 35.8109 37.741" stroke="#626BE7" strokeWidth="5.14681"/>
<path d="M60.0683 55.3015L60.0683 41.9591C60.0688 41.3264 59.818 40.7194 59.3711 40.2717C58.9241 39.8239 58.3176 39.572 57.6849 39.5715C57.0522 39.5709 56.4452 39.8217 55.9975 40.2687C55.5497 40.7157 55.2979 41.3222 55.2973 41.9549L55.2973 55.2973L41.9549 55.2973C41.3217 55.2973 40.7144 55.5488 40.2666 55.9966C39.8188 56.4443 39.5673 57.0516 39.5673 57.6849C39.5673 58.3181 39.8188 58.9254 40.2666 59.3731C40.7144 59.8209 41.3217 60.0724 41.9549 60.0724L55.2973 60.0724L55.2973 73.4149C55.2973 74.0481 55.5488 74.6554 55.9966 75.1031C56.4444 75.5509 57.0517 75.8024 57.6849 75.8024C58.3181 75.8024 58.9254 75.5509 59.3732 75.1031C59.8209 74.6554 60.0725 74.0481 60.0725 73.4149L60.0725 60.0724L73.4149 60.0725C74.0481 60.0725 74.6554 59.8209 75.1032 59.3731C75.5509 58.9254 75.8025 58.3181 75.8025 57.6849C75.8025 57.0516 75.5509 56.4443 75.1032 55.9966C74.6554 55.5488 74.0481 55.2973 73.4149 55.2973L60.0683 55.3015Z" fill="#626BE7"/>
</svg>
