<svg width="72" height="72" viewBox="0 0 72 72" fill="none" xmlns="http://www.w3.org/2000/svg">
<circle cx="35.8109" cy="20.3705" r="17.3705" stroke="#EB6477" strokeWidth="5.14681"/>
<path d="M3.00001 70.5519C3.00001 52.4309 17.69 37.741 35.8109 37.741" stroke="#EB6477" strokeWidth="5.14681"/>
<path d="M61.0555 57.6849L70.49 48.2504C70.9377 47.8034 71.1896 47.1968 71.1902 46.5642C71.1907 45.9315 70.9399 45.3245 70.493 44.8768C70.046 44.429 69.4395 44.1772 68.8068 44.1766C68.1741 44.176 67.5671 44.4268 67.1194 44.8738L57.6849 54.3083L48.2504 44.8738C47.8026 44.426 47.1953 44.1745 46.5621 44.1745C45.9289 44.1745 45.3216 44.426 44.8738 44.8738C44.426 45.3216 44.1745 45.9288 44.1745 46.5621C44.1745 47.1953 44.426 47.8026 44.8738 48.2504L54.3083 57.6849L44.8738 67.1194C44.426 67.5671 44.1745 68.1744 44.1745 68.8076C44.1745 69.4409 44.426 70.0482 44.8738 70.4959C45.3216 70.9437 45.9289 71.1952 46.5621 71.1952C47.1953 71.1952 47.8026 70.9437 48.2504 70.4959L57.6849 61.0614L67.1194 70.4959C67.5671 70.9437 68.1744 71.1952 68.8077 71.1952C69.4409 71.1952 70.0482 70.9437 70.4959 70.4959C70.9437 70.0482 71.1953 69.4409 71.1953 68.8076C71.1953 68.1744 70.9437 67.5671 70.4959 67.1194L61.0555 57.6849Z" fill="#EB6477"/>
</svg>
