<svg width="176" height="146" viewBox="0 0 176 146" fill="none" xmlns="http://www.w3.org/2000/svg">
<path d="M116.51 113.82C120.77 107.114 127.447 109.18 134.469 113.641C141.491 118.102 146.198 123.268 141.938 129.974C137.678 136.679 126.065 142.384 119.043 137.923C112.021 133.462 112.25 120.525 116.51 113.82Z" fill="#313131"/>
<circle cx="68.5" cy="68.5" r="68.5" fill="#FFF7DA"/>
<path d="M0 131.345C0 129.661 10.3508 130.035 10.3508 130.035H169.83C176.156 130.035 178.648 132.093 172.322 136.395C165.997 140.697 166.152 132.481 140.503 139.762C129.96 142.755 122.677 138.821 110.409 137.891C90.6657 136.395 94.8827 141.258 79.5481 142.755C58.2119 144.837 0 133.028 0 131.345Z" fill="#D8C9C5"/>
<path d="M50.4379 38.0534C44.5723 32.9389 45.8133 28.0132 49.6964 23.5599C53.5796 19.1065 58.6345 16.8119 64.5 21.9265C70.3655 27.041 74.8206 37.6279 70.9374 42.0812C67.0543 46.5346 56.3034 43.168 50.4379 38.0534Z" fill="#313131"/>
<path fill-rule="evenodd" clip-rule="evenodd" d="M47.0446 28.2202C47.5115 27.4536 48.0754 26.7032 48.7154 25.9693C52.5985 21.516 57.8108 19.3586 64.2084 24.9371C67.9123 28.1668 71.2016 33.2814 72.5612 37.88C72.6679 32.7846 69.0635 25.8752 64.6664 22.041C58.8008 16.9265 53.746 19.2211 49.8628 23.6744C48.5833 25.1418 47.5907 26.6604 47.0446 28.2202Z" fill="#545454"/>
<path d="M51.0951 37.2997C48.311 34.8721 47.3585 32.6262 47.4111 30.5844C47.4648 28.4938 48.5753 26.3672 50.4501 24.2171C52.3244 22.0676 54.3772 20.5657 56.5489 20.1362C58.6604 19.7185 61.0864 20.2767 63.8428 22.6802C66.6344 25.1143 69.1224 28.8901 70.4319 32.5858C71.0851 34.4294 71.4283 36.2066 71.3949 37.7509C71.3615 39.2945 70.9556 40.5388 70.1837 41.424C68.6358 43.1993 65.5016 43.5909 61.6613 42.6822C57.9086 41.7942 53.9021 39.7473 51.0951 37.2997Z" stroke="black" stroke-width="2"/>
<path d="M111.688 24.3844C117.704 19.4477 122.356 21.4879 126.104 26.0555C129.852 30.623 131.277 35.9883 125.261 40.925C119.245 45.8617 108.066 48.5005 104.318 43.9329C100.57 39.3654 105.672 29.3212 111.688 24.3844Z" fill="#313131"/>
<path fill-rule="evenodd" clip-rule="evenodd" d="M129.367 31.9338C128.994 31.1175 128.522 30.3057 127.974 29.5014C124.643 24.6208 119.722 21.8633 112.711 26.6476C108.651 29.4175 104.781 34.1081 102.889 38.5141C103.384 33.4417 107.779 27.006 112.598 23.7177C119.026 19.3313 123.775 22.2065 127.105 27.0871C128.202 28.6953 129.009 30.3205 129.367 31.9338Z" fill="#545454"/>
<path d="M112.322 25.1575C115.178 22.8143 117.55 22.2472 119.555 22.6374C121.608 23.037 123.521 24.4845 125.331 26.6898C127.14 28.8944 128.281 31.1677 128.344 33.3806C128.406 35.5322 127.454 37.832 124.627 40.152C121.764 42.5015 117.628 44.3293 113.766 45.0082C111.84 45.3468 110.03 45.3906 108.513 45.1017C106.996 44.813 105.836 44.2065 105.091 43.2985C103.597 41.4778 103.73 38.3221 105.263 34.6855C106.761 31.1319 109.443 27.52 112.322 25.1575Z" stroke="black" stroke-width="2"/>
<path d="M122.775 59.6563C122.775 78.8788 107.192 89.882 87.9697 89.882C68.7472 89.882 53.1643 78.8788 53.1643 59.6563C53.1643 40.4338 68.7472 20.2712 87.9697 20.2712C107.192 20.2712 122.775 40.4338 122.775 59.6563Z" fill="#EAEAEA"/>
<path fill-rule="evenodd" clip-rule="evenodd" d="M96.7666 89.4125C102.929 86.1209 108.277 80.4371 111.968 72.2345C117.317 60.349 117.954 45.9173 113.975 34.8054C119.462 42.011 122.796 51.1044 122.796 59.9968C122.796 76.1879 111.741 86.5478 96.7666 89.4125Z" fill="#DDD6D6"/>
<path d="M121.275 59.6563C121.275 68.8218 117.578 75.9505 111.631 80.8167C105.653 85.7083 97.3086 88.382 87.9697 88.382C78.6307 88.382 70.2868 85.7083 64.3084 80.8167C58.3613 75.9505 54.6643 68.8218 54.6643 59.6563C54.6643 50.4311 58.4132 40.9218 64.5036 33.7243C70.5922 26.5289 78.9039 21.7712 87.9697 21.7712C97.0354 21.7712 105.347 26.5289 111.436 33.7243C117.526 40.9218 121.275 50.4311 121.275 59.6563Z" stroke="#272727" stroke-width="3"/>
<path d="M108.925 49.6456C115.558 53.7152 116.851 60.1274 113.761 65.1637C110.671 70.2 104.369 71.9533 97.736 67.8837C91.1027 63.8142 86.6496 55.4629 89.7394 50.4265C92.8291 45.3902 102.292 45.5761 108.925 49.6456Z" fill="#424242"/>
<path d="M114.218 63C116.165 58.5012 114.536 53.2371 108.643 49.7677C104.112 46.8157 91.836 44.6097 89 51.9559C92.0456 47.7059 100.557 47.0055 107.111 49.783C113.804 52.6199 116.045 58.063 114.218 63Z" fill="#606060"/>
<path d="M77.1262 78.2162C77.2202 75.7557 82.0604 74.5303 87.9647 74.7561C93.8689 74.9818 98.6014 76.5732 98.5073 79.0337C98.4133 81.4942 93.5282 83.8919 87.624 83.6662C81.7197 83.4405 77.0321 80.6767 77.1262 78.2162Z" fill="#424242"/>
<path opacity="0.16" d="M79.3639 78.0253C81.197 76.6446 83.1883 76.502 86.4397 76.6866" stroke="white" stroke-width="5" stroke-linecap="round" stroke-linejoin="round"/>
<path d="M73.3719 68.3366C66.246 71.4645 60.2418 68.8691 57.8669 63.4588C55.4921 58.0485 57.6459 51.8721 64.7718 48.7442C71.8978 45.6162 81.2974 46.7212 83.6723 52.1315C86.0471 57.5418 80.4979 65.2086 73.3719 68.3366Z" fill="#424242"/>
<path d="M108.664 50.0718C111.892 52.0524 113.781 54.5769 114.508 57.1767C115.234 59.7753 114.812 62.4947 113.335 64.9023C111.858 67.3098 109.625 68.9181 106.979 69.4482C104.332 69.9785 101.226 69.4381 97.9975 67.4576C94.7612 65.4721 92.0558 62.4388 90.5419 59.3004C89.0213 56.1482 88.7476 52.9992 90.1656 50.688C91.5835 48.3768 94.5147 47.194 98.0138 47.1213C101.497 47.0489 105.427 48.0863 108.664 50.0718Z" stroke="black"/>
<path d="M73.1709 67.8787C69.7029 69.401 66.5517 69.5131 64.0019 68.6272C61.4532 67.7417 59.46 65.8441 58.3248 63.2578C57.1895 60.6715 57.1419 57.9199 58.2153 55.4445C59.2892 52.9679 61.5048 50.7243 64.9728 49.202C68.4495 47.6759 72.484 47.1836 75.9253 47.7298C79.3819 48.2785 82.1246 49.8497 83.2144 52.3325C84.3043 54.8153 83.6042 57.8976 81.6683 60.8134C79.741 63.7162 76.6476 66.3526 73.1709 67.8787Z" stroke="black"/>
<path d="M71 60C74.5697 57.8572 75.1333 58.0714 79.2667 57.6429M95.8 57C98.0545 57 99.5576 57.4286 102 59.7857" stroke="white" stroke-width="7" stroke-linecap="round" stroke-linejoin="round"/>
<path d="M61.1702 50.9029C57.603 54.0013 56.7916 57.7419 57.0418 60C57.4171 57.5483 60.0443 52.4513 63.0468 50.5158C66.0492 48.5802 74.8691 45.8705 82 50.1287C74.8691 44.322 64.7357 47.806 61.1702 50.9029Z" fill="white" fill-opacity="0.16"/>
<path d="M130.5 127.333C130.5 125.216 132.216 123.5 134.333 123.5H140.667C142.784 123.5 144.5 125.216 144.5 127.333C144.5 127.978 143.978 128.5 143.333 128.5H131.667C131.022 128.5 130.5 127.978 130.5 127.333Z" fill="#C4C4C4" stroke="black" stroke-width="3"/>
<line x1="46.5" y1="128.5" x2="168.5" y2="128.5" stroke="black" stroke-width="3" stroke-linecap="round"/>
<line x1="33.5" y1="128.5" x2="39.5" y2="128.5" stroke="black" stroke-width="3" stroke-linecap="round"/>
<line x1="11.5" y1="128.5" x2="27.5" y2="128.5" stroke="black" stroke-width="3" stroke-linecap="round"/>
<path d="M29.217 61.8986C29.5968 60.2143 32.044 60.364 32.2158 62.082C32.2806 62.7311 32.7535 63.267 33.3892 63.4138C35.0855 63.8055 34.9346 66.273 33.2031 66.455C32.5544 66.5232 32.0197 66.9975 31.8762 67.6338C31.4964 69.3182 29.0492 69.1685 28.8774 67.4504C28.8126 66.8013 28.3397 66.2654 27.704 66.1187C26.0077 65.727 26.1586 63.2595 27.89 63.0775C28.5388 63.0093 29.0735 62.535 29.217 61.8986Z" fill="#5F5F5F"/>
<path d="M147.686 59.0174C149.176 58.1444 150.738 60.0341 149.601 61.333C149.171 61.8237 149.102 62.5351 149.429 63.0996C150.302 64.6061 148.397 66.1813 147.081 65.041C146.588 64.6137 145.876 64.5471 145.314 64.8769C143.824 65.7499 142.262 63.8602 143.399 62.5614C143.829 62.0706 143.898 61.3592 143.571 60.7947C142.698 59.2882 144.604 57.7131 145.919 58.8533C146.412 59.2806 147.124 59.3472 147.686 59.0174Z" fill="#5F5F5F"/>
<path d="M37.3416 85.7657C36.9737 85.149 37.8109 84.5294 38.2932 85.0614C38.483 85.2708 38.7943 85.3175 39.0375 85.1735C39.662 84.8037 40.2882 85.65 39.7521 86.1392C39.5434 86.3296 39.497 86.641 39.6418 86.8837C40.0096 87.5004 39.1724 88.1199 38.6901 87.5879C38.5004 87.3786 38.189 87.3319 37.9459 87.4759C37.3214 87.8456 36.6951 86.9994 37.2312 86.5102C37.44 86.3198 37.4863 86.0084 37.3416 85.7657Z" fill="#5F5F5F"/>
<path d="M127.777 71.2557C127.919 70.71 128.731 70.8592 128.669 71.4198C128.645 71.6438 128.788 71.852 129.006 71.9094C129.558 72.0546 129.407 72.8761 128.84 72.8156C128.616 72.7917 128.408 72.9353 128.351 73.1533C128.208 73.699 127.397 73.5498 127.458 72.9892C127.482 72.7652 127.339 72.557 127.121 72.4996C126.569 72.3544 126.72 71.5329 127.288 71.5934C127.512 71.6173 127.72 71.4737 127.777 71.2557Z" fill="#5F5F5F"/>
<rect x="50.457" y="82.5851" width="75.0253" height="46.3395" rx="12.5" fill="#C4C4C4" stroke="black" stroke-width="3"/>
<path d="M118.377 82.0413C113.787 109.427 81.0213 125.197 65.2123 129.66H122.393C126.217 129.66 126.664 125.835 126.409 123.922C126.345 113.468 126.256 91.2972 126.409 86.2485C126.562 81.1998 121.118 81.3401 118.377 82.0413Z" fill="#B5B5B5"/>
<rect x="50.457" y="82.5851" width="75.0253" height="46.3395" rx="12.5" stroke="black" stroke-width="3"/>
<g style="mix-blend-mode:overlay">
<path d="M75.5793 109.253C75.6727 109.16 75.7473 109.151 75.8033 109.225C75.8687 109.291 75.864 109.365 75.7893 109.449C75.3413 110 74.8747 110.499 74.3893 110.947C73.904 111.395 73.4093 111.773 72.9053 112.081C72.4013 112.399 71.8927 112.641 71.3793 112.809C70.866 112.977 70.3573 113.061 69.8533 113.061C69.4427 113.061 69.0133 112.977 68.5653 112.809C68.1267 112.641 67.7067 112.375 67.3053 112.011C66.9133 111.647 66.5587 111.181 66.2413 110.611C65.9333 110.033 65.7047 109.337 65.5553 108.525C65.3033 109.039 65.042 109.519 64.7713 109.967C64.5007 110.415 64.216 110.807 63.9173 111.143C63.628 111.47 63.3293 111.727 63.0213 111.913C62.7227 112.109 62.4193 112.207 62.1113 112.207C61.9247 112.207 61.7333 112.175 61.5373 112.109C61.3413 112.044 61.1593 111.937 60.9913 111.787C60.8327 111.647 60.6973 111.461 60.5853 111.227C60.4827 110.994 60.4313 110.709 60.4313 110.373C60.4313 109.916 60.4687 109.375 60.5433 108.749C60.618 108.124 60.6973 107.475 60.7813 106.803C60.8653 106.122 60.9447 105.445 61.0193 104.773C61.094 104.101 61.1313 103.485 61.1313 102.925C61.1313 102.449 61.0893 102.109 61.0053 101.903C60.9307 101.698 60.814 101.595 60.6553 101.595C60.5527 101.595 60.4733 101.623 60.4173 101.679C60.3613 101.726 60.3333 101.773 60.3333 101.819C60.3333 101.922 60.2913 101.973 60.2073 101.973C60.1233 101.973 60.0813 101.922 60.0813 101.819C60.0813 101.763 60.0953 101.693 60.1233 101.609C60.1513 101.516 60.198 101.432 60.2633 101.357C60.3193 101.273 60.4033 101.203 60.5153 101.147C60.6273 101.082 60.7673 101.049 60.9353 101.049C61.1687 101.049 61.3647 101.115 61.5233 101.245C61.6913 101.367 61.8267 101.525 61.9293 101.721C62.032 101.908 62.1067 102.118 62.1533 102.351C62.2 102.575 62.2233 102.795 62.2233 103.009C62.2233 103.532 62.186 104.111 62.1113 104.745C62.046 105.371 61.9713 106.015 61.8873 106.677C61.8033 107.331 61.724 107.975 61.6493 108.609C61.584 109.235 61.5513 109.804 61.5513 110.317C61.5513 110.775 61.6073 111.134 61.7193 111.395C61.8313 111.647 61.9807 111.773 62.1673 111.773C62.4567 111.773 62.746 111.675 63.0353 111.479C63.3247 111.274 63.6093 110.999 63.8893 110.653C64.1693 110.308 64.44 109.907 64.7013 109.449C64.972 108.983 65.2287 108.488 65.4713 107.965C65.4153 107.536 65.3873 107.06 65.3873 106.537C65.3873 105.445 65.4433 104.493 65.5553 103.681C65.6673 102.869 65.812 102.197 65.9893 101.665C66.1667 101.133 66.3627 100.737 66.5773 100.475C66.792 100.214 66.9973 100.083 67.1933 100.083C67.3613 100.083 67.506 100.158 67.6273 100.307C67.758 100.447 67.8233 100.653 67.8233 100.923C67.8233 101.175 67.7907 101.497 67.7253 101.889C67.6693 102.272 67.5807 102.701 67.4593 103.177C67.3473 103.653 67.2073 104.162 67.0393 104.703C66.8807 105.235 66.6987 105.772 66.4933 106.313C66.5027 107.237 66.5727 108.04 66.7033 108.721C66.8433 109.393 67.016 109.967 67.2213 110.443C67.436 110.919 67.674 111.302 67.9353 111.591C68.1967 111.89 68.4533 112.119 68.7053 112.277C68.9667 112.445 69.214 112.557 69.4473 112.613C69.69 112.679 69.8953 112.711 70.0633 112.711C70.558 112.711 71.062 112.604 71.5753 112.389C72.098 112.184 72.602 111.913 73.0873 111.577C73.582 111.241 74.044 110.868 74.4733 110.457C74.9027 110.047 75.2713 109.645 75.5793 109.253ZM67.4733 101.035C67.4547 101.035 67.3987 101.105 67.3053 101.245C67.212 101.376 67.1093 101.609 66.9973 101.945C66.8853 102.281 66.7827 102.729 66.6893 103.289C66.596 103.84 66.5353 104.535 66.5073 105.375C66.6567 104.927 66.792 104.489 66.9133 104.059C67.044 103.63 67.1513 103.229 67.2353 102.855C67.3287 102.482 67.3987 102.146 67.4453 101.847C67.492 101.549 67.5153 101.301 67.5153 101.105C67.5153 101.059 67.5013 101.035 67.4733 101.035ZM84.5678 109.253C84.6518 109.16 84.7218 109.151 84.7778 109.225C84.8431 109.291 84.8431 109.365 84.7778 109.449C84.7124 109.533 84.5911 109.669 84.4138 109.855C84.2458 110.042 84.0311 110.252 83.7698 110.485C83.5178 110.719 83.2284 110.961 82.9018 111.213C82.5844 111.465 82.2391 111.694 81.8658 111.899C81.5018 112.105 81.1191 112.273 80.7178 112.403C80.3258 112.543 79.9244 112.613 79.5138 112.613C79.0471 112.613 78.6458 112.543 78.3098 112.403C77.9831 112.273 77.7078 112.095 77.4838 111.871C77.2691 111.657 77.0964 111.409 76.9658 111.129C76.8444 110.84 76.7511 110.546 76.6858 110.247C76.6204 109.939 76.5784 109.636 76.5598 109.337C76.5504 109.029 76.5504 108.749 76.5598 108.497C76.4478 108.665 76.3311 108.819 76.2098 108.959C76.0978 109.099 75.9624 109.263 75.8038 109.449C75.7571 109.496 75.7104 109.524 75.6638 109.533C75.6264 109.533 75.5938 109.524 75.5658 109.505C75.5378 109.477 75.5238 109.44 75.5238 109.393C75.5144 109.347 75.5331 109.3 75.5798 109.253C75.8411 108.955 76.0744 108.665 76.2798 108.385C76.4944 108.096 76.6018 107.835 76.6018 107.601C76.6018 107.508 76.6578 107.452 76.7698 107.433C76.8818 107.415 77.0031 107.424 77.1338 107.461C77.2644 107.499 77.3858 107.555 77.4978 107.629C77.6098 107.704 77.6658 107.783 77.6658 107.867C77.6658 107.895 77.6564 108.026 77.6378 108.259C77.6191 108.483 77.6098 108.759 77.6098 109.085C77.6191 109.412 77.6471 109.762 77.6938 110.135C77.7404 110.509 77.8338 110.854 77.9738 111.171C78.1138 111.479 78.3098 111.736 78.5618 111.941C78.8138 112.156 79.1451 112.263 79.5558 112.263C80.0784 112.263 80.6011 112.142 81.1238 111.899C81.6464 111.666 82.1318 111.386 82.5798 111.059C83.0371 110.733 83.4384 110.401 83.7838 110.065C84.1291 109.72 84.3904 109.449 84.5678 109.253ZM77.3858 106.397C77.2178 106.435 77.0684 106.397 76.9378 106.285C76.8071 106.173 76.7324 106.015 76.7138 105.809C76.6951 105.613 76.7371 105.431 76.8398 105.263C76.9518 105.095 77.0964 104.993 77.2738 104.955C77.4418 104.918 77.5911 104.955 77.7218 105.067C77.8524 105.179 77.9271 105.333 77.9458 105.529C77.9644 105.735 77.9178 105.921 77.8058 106.089C77.6938 106.248 77.5538 106.351 77.3858 106.397ZM93.2982 109.253C93.3355 109.207 93.3729 109.183 93.4102 109.183C93.4569 109.183 93.4895 109.197 93.5082 109.225C93.5362 109.253 93.5502 109.291 93.5502 109.337C93.5502 109.384 93.5315 109.426 93.4942 109.463C93.4289 109.538 93.3029 109.683 93.1162 109.897C92.9389 110.103 92.7149 110.341 92.4442 110.611C92.1735 110.873 91.8702 111.148 91.5342 111.437C91.1982 111.727 90.8389 111.988 90.4562 112.221C90.0735 112.464 89.6769 112.66 89.2662 112.809C88.8555 112.968 88.4495 113.047 88.0482 113.047C87.5162 113.047 87.0775 112.987 86.7322 112.865C86.3869 112.753 86.1115 112.599 85.9062 112.403C85.7102 112.217 85.5702 111.997 85.4862 111.745C85.4115 111.503 85.3742 111.251 85.3742 110.989C85.3742 110.812 85.3929 110.639 85.4302 110.471C85.4675 110.294 85.5095 110.126 85.5562 109.967C85.6122 109.809 85.6589 109.664 85.6962 109.533C85.7335 109.393 85.7522 109.281 85.7522 109.197C85.7522 109.104 85.7102 109.025 85.6262 108.959C85.5422 108.885 85.4395 108.805 85.3182 108.721C85.1502 108.964 85.0195 109.146 84.9262 109.267C84.8702 109.342 84.8142 109.407 84.7582 109.463C84.7115 109.51 84.6695 109.533 84.6322 109.533C84.5949 109.533 84.5669 109.519 84.5482 109.491C84.5202 109.463 84.5062 109.431 84.5062 109.393C84.5062 109.347 84.5249 109.3 84.5622 109.253C84.6089 109.207 84.6602 109.146 84.7162 109.071C84.7629 109.006 84.8189 108.931 84.8842 108.847C84.9495 108.754 85.0195 108.651 85.0942 108.539C84.9262 108.399 84.7722 108.213 84.6322 107.979C84.4922 107.737 84.4222 107.401 84.4222 106.971C84.4222 106.542 84.4922 106.159 84.6322 105.823C84.7722 105.478 84.9355 105.189 85.1222 104.955C85.3182 104.722 85.5189 104.545 85.7242 104.423C85.9295 104.302 86.0975 104.241 86.2282 104.241C86.4895 104.241 86.6575 104.311 86.7322 104.451C86.8162 104.591 86.8582 104.731 86.8582 104.871C86.8582 105.151 86.8209 105.441 86.7462 105.739C86.6809 106.029 86.5922 106.313 86.4802 106.593C86.3775 106.873 86.2562 107.149 86.1162 107.419C85.9762 107.681 85.8362 107.923 85.6962 108.147C85.7989 108.269 85.9155 108.376 86.0462 108.469C86.1769 108.553 86.2982 108.642 86.4102 108.735C86.5222 108.819 86.6155 108.908 86.6902 109.001C86.7742 109.095 86.8162 109.202 86.8162 109.323C86.8162 109.417 86.7975 109.519 86.7602 109.631C86.7229 109.734 86.6809 109.855 86.6342 109.995C86.5969 110.135 86.5595 110.294 86.5222 110.471C86.4849 110.649 86.4662 110.854 86.4662 111.087C86.4662 111.302 86.4895 111.507 86.5362 111.703C86.5922 111.899 86.6809 112.067 86.8022 112.207C86.9235 112.357 87.0869 112.473 87.2922 112.557C87.5069 112.651 87.7682 112.697 88.0762 112.697C88.4215 112.697 88.7762 112.632 89.1402 112.501C89.5042 112.371 89.8589 112.198 90.2042 111.983C90.5495 111.778 90.8809 111.545 91.1982 111.283C91.5249 111.022 91.8235 110.765 92.0942 110.513C92.3649 110.252 92.6029 110.014 92.8082 109.799C93.0135 109.575 93.1769 109.393 93.2982 109.253ZM85.3882 107.335C85.3882 107.541 85.4349 107.727 85.5282 107.895C85.6589 107.681 85.7895 107.452 85.9202 107.209C86.0509 106.967 86.1675 106.719 86.2702 106.467C86.3729 106.206 86.4569 105.945 86.5222 105.683C86.5875 105.422 86.6202 105.17 86.6202 104.927C86.6202 104.871 86.6155 104.797 86.6062 104.703C86.5969 104.61 86.5735 104.563 86.5362 104.563C86.4522 104.563 86.3449 104.643 86.2142 104.801C86.0835 104.951 85.9575 105.156 85.8362 105.417C85.7149 105.669 85.6075 105.963 85.5142 106.299C85.4302 106.626 85.3882 106.971 85.3882 107.335ZM105.199 109.253C105.283 109.16 105.353 109.151 105.409 109.225C105.474 109.291 105.474 109.365 105.409 109.449C105.343 109.533 105.227 109.664 105.059 109.841C104.9 110.019 104.699 110.219 104.457 110.443C104.223 110.658 103.953 110.887 103.645 111.129C103.346 111.363 103.019 111.573 102.665 111.759C102.319 111.955 101.951 112.114 101.559 112.235C101.167 112.366 100.77 112.431 100.369 112.431C99.8459 112.431 99.3979 112.366 99.0245 112.235C98.6512 112.114 98.3339 111.951 98.0725 111.745C97.8112 111.54 97.6012 111.307 97.4425 111.045C97.2839 110.775 97.1579 110.504 97.0645 110.233C96.9805 109.953 96.9199 109.683 96.8825 109.421C96.8545 109.151 96.8405 108.908 96.8405 108.693C96.7472 108.824 96.5932 109.015 96.3785 109.267C96.1639 109.519 95.9165 109.776 95.6365 110.037C95.3565 110.299 95.0579 110.527 94.7405 110.723C94.4232 110.91 94.1105 111.003 93.8025 111.003C93.5132 111.003 93.3032 110.924 93.1725 110.765C93.0419 110.607 92.9765 110.415 92.9765 110.191C92.9765 109.986 93.0372 109.762 93.1585 109.519C93.2705 109.267 93.4199 109.015 93.6065 108.763C93.8025 108.511 94.0172 108.264 94.2505 108.021C94.4932 107.779 94.7359 107.564 94.9785 107.377C95.2212 107.191 95.4499 107.041 95.6645 106.929C95.8885 106.817 96.0752 106.761 96.2245 106.761C96.5419 106.761 96.7472 106.841 96.8405 106.999C96.9339 107.149 96.9805 107.307 96.9805 107.475C96.9805 107.643 96.9385 107.727 96.8545 107.727C96.7705 107.727 96.7285 107.699 96.7285 107.643C96.7285 107.578 96.7192 107.508 96.7005 107.433C96.6912 107.359 96.6305 107.321 96.5185 107.321C96.4159 107.321 96.2759 107.382 96.0985 107.503C95.9305 107.615 95.7485 107.765 95.5525 107.951C95.3565 108.129 95.1605 108.329 94.9645 108.553C94.7685 108.777 94.5912 109.001 94.4325 109.225C94.2739 109.44 94.1432 109.645 94.0405 109.841C93.9379 110.028 93.8865 110.177 93.8865 110.289C93.8865 110.485 93.9799 110.583 94.1665 110.583C94.3719 110.583 94.6052 110.49 94.8665 110.303C95.1372 110.117 95.4032 109.902 95.6645 109.659C95.9259 109.407 96.1592 109.16 96.3645 108.917C96.5792 108.675 96.7332 108.493 96.8265 108.371V108.119C96.8265 108.026 96.8825 107.97 96.9945 107.951C97.1065 107.933 97.2279 107.947 97.3585 107.993C97.4892 108.031 97.6105 108.087 97.7225 108.161C97.8345 108.236 97.8905 108.315 97.8905 108.399C97.8905 108.577 97.9045 108.791 97.9325 109.043C97.9605 109.286 98.0072 109.547 98.0725 109.827C98.1379 110.098 98.2312 110.369 98.3525 110.639C98.4739 110.91 98.6279 111.153 98.8145 111.367C99.0012 111.573 99.2205 111.741 99.4725 111.871C99.7339 112.011 100.042 112.081 100.397 112.081C100.919 112.081 101.428 111.969 101.923 111.745C102.427 111.531 102.893 111.274 103.323 110.975C103.752 110.667 104.125 110.355 104.443 110.037C104.769 109.711 105.021 109.449 105.199 109.253ZM115.889 109.253C115.982 109.16 116.057 109.151 116.113 109.225C116.178 109.291 116.174 109.365 116.099 109.449C116.034 109.533 115.917 109.664 115.749 109.841C115.59 110.019 115.39 110.219 115.147 110.443C114.914 110.658 114.643 110.887 114.335 111.129C114.036 111.363 113.71 111.573 113.355 111.759C113.01 111.955 112.641 112.114 112.249 112.235C111.866 112.366 111.47 112.431 111.059 112.431C110.452 112.431 109.916 112.371 109.449 112.249C108.982 112.128 108.586 112.002 108.259 111.871C108.082 112.002 107.914 112.105 107.755 112.179C107.596 112.263 107.452 112.305 107.321 112.305C107.041 112.305 106.84 112.245 106.719 112.123C106.598 112.002 106.537 111.871 106.537 111.731C106.546 111.591 106.612 111.461 106.733 111.339C106.854 111.218 107.018 111.157 107.223 111.157C107.391 111.157 107.582 111.199 107.797 111.283C108.021 111.097 108.259 110.863 108.511 110.583C108.763 110.294 108.996 109.991 109.211 109.673C109.435 109.347 109.617 109.025 109.757 108.707C109.897 108.381 109.967 108.091 109.967 107.839C109.967 107.821 109.958 107.797 109.939 107.769C109.92 107.732 109.888 107.713 109.841 107.713C109.598 107.713 109.346 107.779 109.085 107.909C108.824 108.04 108.562 108.213 108.301 108.427C108.049 108.633 107.802 108.866 107.559 109.127C107.326 109.389 107.116 109.65 106.929 109.911C106.742 110.173 106.579 110.425 106.439 110.667C106.308 110.91 106.224 111.111 106.187 111.269V111.283C106.187 111.367 106.131 111.442 106.019 111.507C105.916 111.573 105.795 111.615 105.655 111.633C105.524 111.661 105.403 111.661 105.291 111.633C105.188 111.605 105.137 111.535 105.137 111.423C105.137 109.911 105.198 108.586 105.319 107.447C105.44 106.309 105.594 105.333 105.781 104.521C105.977 103.7 106.196 103.023 106.439 102.491C106.682 101.959 106.924 101.539 107.167 101.231C107.41 100.914 107.638 100.695 107.853 100.573C108.068 100.443 108.25 100.377 108.399 100.377C108.511 100.377 108.604 100.415 108.679 100.489C108.754 100.564 108.814 100.657 108.861 100.769C108.908 100.881 108.94 101.003 108.959 101.133C108.978 101.264 108.987 101.39 108.987 101.511C108.987 102.062 108.894 102.659 108.707 103.303C108.53 103.938 108.306 104.573 108.035 105.207C107.764 105.842 107.47 106.444 107.153 107.013C106.836 107.583 106.546 108.068 106.285 108.469C106.266 108.712 106.252 108.964 106.243 109.225C106.234 109.477 106.22 109.739 106.201 110.009C106.36 109.739 106.579 109.449 106.859 109.141C107.139 108.824 107.447 108.53 107.783 108.259C108.119 107.989 108.464 107.765 108.819 107.587C109.183 107.41 109.524 107.321 109.841 107.321C110.018 107.321 110.191 107.419 110.359 107.615C110.536 107.802 110.625 108.073 110.625 108.427C110.625 108.633 110.564 108.871 110.443 109.141C110.331 109.412 110.177 109.697 109.981 109.995C109.794 110.285 109.58 110.569 109.337 110.849C109.104 111.129 108.861 111.381 108.609 111.605C108.908 111.727 109.258 111.834 109.659 111.927C110.06 112.03 110.541 112.081 111.101 112.081C111.624 112.081 112.132 111.969 112.627 111.745C113.131 111.531 113.593 111.274 114.013 110.975C114.442 110.667 114.816 110.355 115.133 110.037C115.46 109.711 115.712 109.449 115.889 109.253ZM108.497 101.455C108.404 101.455 108.264 101.563 108.077 101.777C107.89 101.983 107.69 102.323 107.475 102.799C107.26 103.275 107.05 103.905 106.845 104.689C106.649 105.464 106.49 106.425 106.369 107.573C106.63 107.153 106.892 106.696 107.153 106.201C107.424 105.707 107.662 105.203 107.867 104.689C108.082 104.167 108.254 103.649 108.385 103.135C108.525 102.622 108.595 102.137 108.595 101.679C108.595 101.577 108.581 101.516 108.553 101.497C108.534 101.469 108.516 101.455 108.497 101.455ZM107.139 111.633C107.186 111.633 107.232 111.624 107.279 111.605C107.326 111.587 107.382 111.563 107.447 111.535C107.363 111.498 107.288 111.479 107.223 111.479C107.111 111.479 107.032 111.507 106.985 111.563C106.948 111.61 106.999 111.633 107.139 111.633Z" fill="black"/>
</g>
</svg>
