<svg width="42" height="42" viewBox="0 0 42 42" fill="none" xmlns="http://www.w3.org/2000/svg">
<circle cx="21" cy="21" r="21" fill="white"/>
<path d="M19.9628 16.975H16.0388V28H13.6178V16.975H9.69383V14.986H19.9628V16.975ZM26.9038 26.047C27.3718 26.047 27.7888 25.969 28.1548 25.813C28.5268 25.657 28.8388 25.438 29.0908 25.156C29.3428 24.874 29.5348 24.532 29.6668 24.13C29.8048 23.728 29.8738 23.278 29.8738 22.78V14.986H32.2948V22.78C32.2948 23.554 32.1688 24.271 31.9168 24.931C31.6708 25.585 31.3138 26.152 30.8458 26.632C30.3838 27.106 29.8198 27.478 29.1538 27.748C28.4878 28.012 27.7378 28.144 26.9038 28.144C26.0638 28.144 25.3108 28.012 24.6448 27.748C23.9788 27.478 23.4118 27.106 22.9438 26.632C22.4818 26.152 22.1248 25.585 21.8728 24.931C21.6268 24.271 21.5038 23.554 21.5038 22.78V14.986H23.9248V22.771C23.9248 23.269 23.9908 23.719 24.1228 24.121C24.2608 24.523 24.4558 24.868 24.7078 25.156C24.9658 25.438 25.2778 25.657 25.6438 25.813C26.0158 25.969 26.4358 26.047 26.9038 26.047Z" fill="#9094C8"/>
</svg>
